solid CNC
facet normal 0.0 0.0 1.0
  outer loop
    vertex 3196.0230126307583 2264.139912600962 3.9882624582948916
    vertex 3196.0230126307583 2266.2104649617822 3.9882624582948916
    vertex 3195.8867159359147 2265.175188781372 3.9882624582948916
  endloop
endfacet
facet normal 0.0 0.0 1.0
  outer loop
    vertex 3196.0230126307583 2266.2104649617822 3.9882624582948916
    vertex 3196.0230126307583 2264.139912600962 3.9882624582948916
    vertex 3196.422614320777 2263.175188781372 3.9882624582948916
  endloop
endfacet
facet normal 0.0 0.0 1.0
  outer loop
    vertex 3196.0230126307583 2266.2104649617822 3.9882624582948916
    vertex 3196.422614320777 2263.175188781372 3.9882624582948916
    vertex 3196.422614320777 2267.175188781372 3.9882624582948916
  endloop
endfacet
facet normal 0.0 0.0 1.0
  outer loop
    vertex 3196.422614320777 2267.175188781372 3.9882624582948916
    vertex 3196.422614320777 2263.175188781372 3.9882624582948916
    vertex 3197.0582888111685 2262.3467616566254 3.9882624582948916
  endloop
endfacet
facet normal 0.0 0.0 1.0
  outer loop
    vertex 3196.422614320777 2267.175188781372 3.9882624582948916
    vertex 3197.0582888111685 2262.3467616566254 3.9882624582948916
    vertex 3196.8867159359147 2265.175188781372 3.9882624582948916
  endloop
endfacet
facet normal 0.0 0.0 1.0
  outer loop
    vertex 3196.8867159359147 2265.175188781372 3.9882624582948916
    vertex 3197.0582888111685 2262.3467616566254 3.9882624582948916
    vertex 3196.988938457048 2264.398731646065 3.9882624582948916
  endloop
endfacet
facet normal 0.0 0.0 1.0
  outer loop
    vertex 3196.988938457048 2264.398731646065 3.9882624582948916
    vertex 3197.0582888111685 2262.3467616566254 3.9882624582948916
    vertex 3197.2886397245616 2263.675188781372 3.9882624582948916
  endloop
endfacet
facet normal 0.0 0.0 1.0
  outer loop
    vertex 3197.2886397245616 2263.675188781372 3.9882624582948916
    vertex 3197.0582888111685 2262.3467616566254 3.9882624582948916
    vertex 3197.886715935915 2261.711087166234 3.9882624582948916
  endloop
endfacet
facet normal 0.0 0.0 1.0
  outer loop
    vertex 3197.2886397245616 2263.675188781372 3.9882624582948916
    vertex 3197.886715935915 2261.711087166234 3.9882624582948916
    vertex 3197.765395592355 2263.0538684378125 3.9882624582948916
  endloop
endfacet
facet normal 0.0 0.0 1.0
  outer loop
    vertex 3197.765395592355 2263.0538684378125 3.9882624582948916
    vertex 3197.886715935915 2261.711087166234 3.9882624582948916
    vertex 3198.3867159359147 2262.5771125700185 3.9882624582948916
  endloop
endfacet
facet normal 0.0 0.0 1.0
  outer loop
    vertex 3198.3867159359147 2262.5771125700185 3.9882624582948916
    vertex 3197.886715935915 2261.711087166234 3.9882624582948916
    vertex 3198.8514397555045 2261.3114854762157 3.9882624582948916
  endloop
endfacet
facet normal 0.0 0.0 1.0
  outer loop
    vertex 3198.3867159359147 2262.5771125700185 3.9882624582948916
    vertex 3198.8514397555045 2261.3114854762157 3.9882624582948916
    vertex 3199.1102588006074 2262.277411302505 3.9882624582948916
  endloop
endfacet
facet normal 0.0 0.0 1.0
  outer loop
    vertex 3199.1102588006074 2262.277411302505 3.9882624582948916
    vertex 3198.8514397555045 2261.3114854762157 3.9882624582948916
    vertex 3199.8867159359147 2261.1751887813716 3.9882624582948916
  endloop
endfacet
facet normal 0.0 0.0 1.0
  outer loop
    vertex 3199.1102588006074 2262.277411302505 3.9882624582948916
    vertex 3199.8867159359147 2261.1751887813716 3.9882624582948916
    vertex 3199.8867159359147 2262.175188781372 3.9882624582948916
  endloop
endfacet
facet normal 0.0 0.0 1.0
  outer loop
    vertex 3199.8867159359147 2262.175188781372 3.9882624582948916
    vertex 3199.8867159359147 2261.1751887813716 3.9882624582948916
    vertex 3200.921992116325 2261.3114854762157 3.9882624582948916
  endloop
endfacet
facet normal 0.0 0.0 1.0
  outer loop
    vertex 3199.8867159359147 2262.175188781372 3.9882624582948916
    vertex 3200.921992116325 2261.3114854762157 3.9882624582948916
    vertex 3200.6631730712224 2262.277411302505 3.9882624582948916
  endloop
endfacet
facet normal 0.0 0.0 1.0
  outer loop
    vertex 3200.6631730712224 2262.277411302505 3.9882624582948916
    vertex 3200.921992116325 2261.3114854762157 3.9882624582948916
    vertex 3201.3867159359147 2262.5771125700185 3.9882624582948916
  endloop
endfacet
facet normal 0.0 0.0 1.0
  outer loop
    vertex 3201.3867159359147 2262.5771125700185 3.9882624582948916
    vertex 3200.921992116325 2261.3114854762157 3.9882624582948916
    vertex 3201.8867159359147 2261.711087166234 3.9882624582948916
  endloop
endfacet
facet normal 0.0 0.0 1.0
  outer loop
    vertex 3201.3867159359147 2262.5771125700185 3.9882624582948916
    vertex 3201.8867159359147 2261.711087166234 3.9882624582948916
    vertex 3202.0080362794747 2263.0538684378125 3.9882624582948916
  endloop
endfacet
facet normal 0.0 0.0 1.0
  outer loop
    vertex 3202.0080362794747 2263.0538684378125 3.9882624582948916
    vertex 3201.8867159359147 2261.711087166234 3.9882624582948916
    vertex 3202.7151430606614 2262.3467616566254 3.9882624582948916
  endloop
endfacet
facet normal 0.0 0.0 1.0
  outer loop
    vertex 3202.0080362794747 2263.0538684378125 3.9882624582948916
    vertex 3202.7151430606614 2262.3467616566254 3.9882624582948916
    vertex 3202.484792147268 2263.675188781372 3.9882624582948916
  endloop
endfacet
facet normal 0.0 0.0 1.0
  outer loop
    vertex 3202.484792147268 2263.675188781372 3.9882624582948916
    vertex 3202.7151430606614 2262.3467616566254 3.9882624582948916
    vertex 3202.784493414782 2264.398731646065 3.9882624582948916
  endloop
endfacet
facet normal 0.0 0.0 1.0
  outer loop
    vertex 3202.784493414782 2264.398731646065 3.9882624582948916
    vertex 3202.7151430606614 2262.3467616566254 3.9882624582948916
    vertex 3203.350817551053 2263.1751887813716 3.9882624582948916
  endloop
endfacet
facet normal 0.0 0.0 1.0
  outer loop
    vertex 3202.784493414782 2264.398731646065 3.9882624582948916
    vertex 3203.350817551053 2263.1751887813716 3.9882624582948916
    vertex 3202.8867159359147 2265.175188781372 3.9882624582948916
  endloop
endfacet
facet normal 0.0 0.0 1.0
  outer loop
    vertex 3196.8867159359147 2265.175188781372 3.9882624582948916
    vertex 3197.0582888111685 2268.0036159061183 3.9882624582948916
    vertex 3196.422614320777 2267.175188781372 3.9882624582948916
  endloop
endfacet
facet normal 0.0 0.0 1.0
  outer loop
    vertex 3197.0582888111685 2268.0036159061183 3.9882624582948916
    vertex 3196.8867159359147 2265.175188781372 3.9882624582948916
    vertex 3196.988938457048 2265.9516459166794 3.9882624582948916
  endloop
endfacet
facet normal 0.0 0.0 1.0
  outer loop
    vertex 3197.0582888111685 2268.0036159061183 3.9882624582948916
    vertex 3196.988938457048 2265.9516459166794 3.9882624582948916
    vertex 3197.2886397245616 2266.675188781372 3.9882624582948916
  endloop
endfacet
facet normal 0.0 0.0 1.0
  outer loop
    vertex 3197.0582888111685 2268.0036159061183 3.9882624582948916
    vertex 3197.2886397245616 2266.675188781372 3.9882624582948916
    vertex 3197.886715935915 2268.6392903965098 3.9882624582948916
  endloop
endfacet
facet normal 0.0 0.0 1.0
  outer loop
    vertex 3197.886715935915 2268.6392903965098 3.9882624582948916
    vertex 3197.2886397245616 2266.675188781372 3.9882624582948916
    vertex 3197.765395592355 2267.2965091249316 3.9882624582948916
  endloop
endfacet
facet normal 0.0 0.0 1.0
  outer loop
    vertex 3197.886715935915 2268.6392903965098 3.9882624582948916
    vertex 3197.765395592355 2267.2965091249316 3.9882624582948916
    vertex 3198.3867159359147 2267.7732649927257 3.9882624582948916
  endloop
endfacet
facet normal 0.0 0.0 1.0
  outer loop
    vertex 3197.886715935915 2268.6392903965098 3.9882624582948916
    vertex 3198.3867159359147 2267.7732649927257 3.9882624582948916
    vertex 3198.8514397555045 2269.0388920865284 3.9882624582948916
  endloop
endfacet
facet normal 0.0 0.0 1.0
  outer loop
    vertex 3198.8514397555045 2269.0388920865284 3.9882624582948916
    vertex 3198.3867159359147 2267.7732649927257 3.9882624582948916
    vertex 3199.1102588006074 2268.0729662602394 3.9882624582948916
  endloop
endfacet
facet normal 0.0 0.0 1.0
  outer loop
    vertex 3198.8514397555045 2269.0388920865284 3.9882624582948916
    vertex 3199.1102588006074 2268.0729662602394 3.9882624582948916
    vertex 3199.8867159359147 2269.175188781372 3.9882624582948916
  endloop
endfacet
facet normal 0.0 0.0 1.0
  outer loop
    vertex 3199.8867159359147 2269.175188781372 3.9882624582948916
    vertex 3199.1102588006074 2268.0729662602394 3.9882624582948916
    vertex 3199.8867159359147 2268.175188781372 3.9882624582948916
  endloop
endfacet
facet normal 0.0 0.0 1.0
  outer loop
    vertex 3199.8867159359147 2269.175188781372 3.9882624582948916
    vertex 3199.8867159359147 2268.175188781372 3.9882624582948916
    vertex 3200.6631730712224 2268.0729662602394 3.9882624582948916
  endloop
endfacet
facet normal 0.0 0.0 1.0
  outer loop
    vertex 3199.8867159359147 2269.175188781372 3.9882624582948916
    vertex 3200.6631730712224 2268.0729662602394 3.9882624582948916
    vertex 3200.921992116325 2269.0388920865284 3.9882624582948916
  endloop
endfacet
facet normal 0.0 0.0 1.0
  outer loop
    vertex 3200.921992116325 2269.0388920865284 3.9882624582948916
    vertex 3200.6631730712224 2268.0729662602394 3.9882624582948916
    vertex 3201.3867159359147 2267.7732649927257 3.9882624582948916
  endloop
endfacet
facet normal 0.0 0.0 1.0
  outer loop
    vertex 3200.921992116325 2269.0388920865284 3.9882624582948916
    vertex 3201.3867159359147 2267.7732649927257 3.9882624582948916
    vertex 3201.8867159359147 2268.6392903965098 3.9882624582948916
  endloop
endfacet
facet normal 0.0 0.0 1.0
  outer loop
    vertex 3201.8867159359147 2268.6392903965098 3.9882624582948916
    vertex 3201.3867159359147 2267.7732649927257 3.9882624582948916
    vertex 3202.0080362794747 2267.2965091249316 3.9882624582948916
  endloop
endfacet
facet normal 0.0 0.0 1.0
  outer loop
    vertex 3201.8867159359147 2268.6392903965098 3.9882624582948916
    vertex 3202.0080362794747 2267.2965091249316 3.9882624582948916
    vertex 3202.7151430606614 2268.0036159061183 3.9882624582948916
  endloop
endfacet
facet normal 0.0 0.0 1.0
  outer loop
    vertex 3202.7151430606614 2268.0036159061183 3.9882624582948916
    vertex 3202.0080362794747 2267.2965091249316 3.9882624582948916
    vertex 3202.484792147268 2266.675188781372 3.9882624582948916
  endloop
endfacet
facet normal 0.0 0.0 1.0
  outer loop
    vertex 3202.7151430606614 2268.0036159061183 3.9882624582948916
    vertex 3202.484792147268 2266.675188781372 3.9882624582948916
    vertex 3202.784493414782 2265.9516459166794 3.9882624582948916
  endloop
endfacet
facet normal 0.0 0.0 1.0
  outer loop
    vertex 3202.7151430606614 2268.0036159061183 3.9882624582948916
    vertex 3202.784493414782 2265.9516459166794 3.9882624582948916
    vertex 3203.350817551053 2267.175188781372 3.9882624582948916
  endloop
endfacet
facet normal 0.0 0.0 1.0
  outer loop
    vertex 3203.350817551053 2267.175188781372 3.9882624582948916
    vertex 3202.784493414782 2265.9516459166794 3.9882624582948916
    vertex 3202.8867159359147 2265.175188781372 3.9882624582948916
  endloop
endfacet
facet normal 0.0 0.0 1.0
  outer loop
    vertex 3203.350817551053 2267.175188781372 3.9882624582948916
    vertex 3202.8867159359147 2265.175188781372 3.9882624582948916
    vertex 3203.350817551053 2263.1751887813716 3.9882624582948916
  endloop
endfacet
facet normal 0.0 0.0 1.0
  outer loop
    vertex 3203.350817551053 2267.175188781372 3.9882624582948916
    vertex 3203.350817551053 2263.1751887813716 3.9882624582948916
    vertex 3203.7504192410715 2264.139912600962 3.9882624582948916
  endloop
endfacet
facet normal 0.0 0.0 1.0
  outer loop
    vertex 3203.350817551053 2267.175188781372 3.9882624582948916
    vertex 3203.7504192410715 2264.139912600962 3.9882624582948916
    vertex 3203.7504192410715 2266.2104649617822 3.9882624582948916
  endloop
endfacet
facet normal 0.0 0.0 1.0
  outer loop
    vertex 3203.7504192410715 2266.2104649617822 3.9882624582948916
    vertex 3203.7504192410715 2264.139912600962 3.9882624582948916
    vertex 3203.886715935915 2265.175188781372 3.9882624582948916
  endloop
endfacet
facet normal -0.6087614290086575 0.7933533402912838 -3.047305797258067e-29
  outer loop
    vertex 3197.0582888111685 2268.0036159061183 3.9882624582948916
    vertex 3197.886715935915 2268.6392903965098 2.988262458294894
    vertex 3197.0582888111685 2268.0036159061183 2.988262458294894
  endloop
endfacet
facet normal -0.6087614290086575 0.7933533402912838 -3.047305797258067e-29
  outer loop
    vertex 3197.886715935915 2268.6392903965098 2.988262458294894
    vertex 3197.0582888111685 2268.0036159061183 3.9882624582948916
    vertex 3197.886715935915 2268.6392903965098 3.9882624582948916
  endloop
endfacet
facet normal 0.3826834323651444 0.9238795325112642 -6.396753165928217e-19
  outer loop
    vertex 3200.921992116325 2269.0388920865284 3.9882624582948916
    vertex 3201.8867159359147 2268.6392903965098 2.988262458294894
    vertex 3200.921992116325 2269.0388920865284 2.988262458294894
  endloop
endfacet
facet normal 0.3826834323651444 0.9238795325112642 -6.396753165928217e-19
  outer loop
    vertex 3201.8867159359147 2268.6392903965098 2.988262458294894
    vertex 3200.921992116325 2269.0388920865284 3.9882624582948916
    vertex 3201.8867159359147 2268.6392903965098 3.9882624582948916
  endloop
endfacet
facet normal 0.6087614290086575 0.7933533402912838 7.178609492750909e-30
  outer loop
    vertex 3201.8867159359147 2268.6392903965098 3.9882624582948916
    vertex 3202.7151430606614 2268.0036159061183 2.988262458294894
    vertex 3201.8867159359147 2268.6392903965098 2.988262458294894
  endloop
endfacet
facet normal 0.6087614290086575 0.7933533402912838 7.178609492750909e-30
  outer loop
    vertex 3202.7151430606614 2268.0036159061183 2.988262458294894
    vertex 3201.8867159359147 2268.6392903965098 3.9882624582948916
    vertex 3202.7151430606614 2268.0036159061183 3.9882624582948916
  endloop
endfacet
facet normal 0.7933533402913479 0.6087614290085739 9.826587749105912e-18
  outer loop
    vertex 3202.7151430606614 2268.0036159061183 2.988262458294894
    vertex 3203.350817551053 2267.175188781372 3.9882624582948916
    vertex 3203.350817551053 2267.175188781372 2.988262458294894
  endloop
endfacet
facet normal 0.7933533402913479 0.6087614290085739 9.826587749105912e-18
  outer loop
    vertex 3203.350817551053 2267.175188781372 3.9882624582948916
    vertex 3202.7151430606614 2268.0036159061183 2.988262458294894
    vertex 3202.7151430606614 2268.0036159061183 3.9882624582948916
  endloop
endfacet
facet normal -0.9914448613738197 -0.13052619221998144 0.0
  outer loop
    vertex 3195.8867159359147 2265.175188781372 3.9882624582948916
    vertex 3196.0230126307583 2264.139912600962 2.988262458294892
    vertex 3196.0230126307583 2264.139912600962 3.9882624582948916
  endloop
endfacet
facet normal -0.9914448613738197 -0.13052619221998144 0.0
  outer loop
    vertex 3196.0230126307583 2264.139912600962 2.988262458294892
    vertex 3195.8867159359147 2265.175188781372 3.9882624582948916
    vertex 3195.8867159359147 2265.175188781372 2.988262458294892
  endloop
endfacet
facet normal -0.9238795325112895 0.38268343236508334 3.728300966214203e-18
  outer loop
    vertex 3196.422614320777 2267.175188781372 3.9882624582948916
    vertex 3196.0230126307583 2266.2104649617822 2.988262458294894
    vertex 3196.0230126307583 2266.2104649617822 3.9882624582948916
  endloop
endfacet
facet normal -0.9238795325112895 0.38268343236508334 3.728300966214203e-18
  outer loop
    vertex 3196.0230126307583 2266.2104649617822 2.988262458294894
    vertex 3196.422614320777 2267.175188781372 3.9882624582948916
    vertex 3196.422614320777 2267.175188781372 2.988262458294894
  endloop
endfacet
facet normal -0.7933533402912196 0.608761429008741 1.164722423991394e-29
  outer loop
    vertex 3197.0582888111685 2268.0036159061183 3.9882624582948916
    vertex 3196.422614320777 2267.175188781372 2.988262458294894
    vertex 3196.422614320777 2267.175188781372 3.9882624582948916
  endloop
endfacet
facet normal -0.7933533402912196 0.608761429008741 1.164722423991394e-29
  outer loop
    vertex 3196.422614320777 2267.175188781372 2.988262458294894
    vertex 3197.0582888111685 2268.0036159061183 3.9882624582948916
    vertex 3197.0582888111685 2268.0036159061183 2.988262458294894
  endloop
endfacet
facet normal -0.9914448613738197 0.13052619221998146 1.0002399405588657e-18
  outer loop
    vertex 3196.0230126307583 2266.2104649617822 3.9882624582948916
    vertex 3195.8867159359147 2265.175188781372 2.988262458294892
    vertex 3195.8867159359147 2265.175188781372 3.9882624582948916
  endloop
endfacet
facet normal -0.9914448613738197 0.13052619221998146 1.0002399405588657e-18
  outer loop
    vertex 3195.8867159359147 2265.175188781372 2.988262458294892
    vertex 3196.0230126307583 2266.2104649617822 3.9882624582948916
    vertex 3196.0230126307583 2266.2104649617822 2.988262458294894
  endloop
endfacet
facet normal -0.3826834323651444 0.9238795325112642 3.7283009662169084e-18
  outer loop
    vertex 3197.886715935915 2268.6392903965098 3.9882624582948916
    vertex 3198.8514397555045 2269.0388920865284 2.988262458294894
    vertex 3197.886715935915 2268.6392903965098 2.988262458294894
  endloop
endfacet
facet normal -0.3826834323651444 0.9238795325112642 3.7283009662169084e-18
  outer loop
    vertex 3198.8514397555045 2269.0388920865284 2.988262458294894
    vertex 3197.886715935915 2268.6392903965098 3.9882624582948916
    vertex 3198.8514397555045 2269.0388920865284 3.9882624582948916
  endloop
endfacet
facet normal -0.13052619221998144 0.9914448613738197 1.0002399405366445e-18
  outer loop
    vertex 3198.8514397555045 2269.0388920865284 3.9882624582948916
    vertex 3199.8867159359147 2269.175188781372 2.988262458294894
    vertex 3198.8514397555045 2269.0388920865284 2.988262458294894
  endloop
endfacet
facet normal -0.13052619221998144 0.9914448613738197 1.0002399405366445e-18
  outer loop
    vertex 3199.8867159359147 2269.175188781372 2.988262458294894
    vertex 3198.8514397555045 2269.0388920865284 3.9882624582948916
    vertex 3199.8867159359147 2269.175188781372 3.9882624582948916
  endloop
endfacet
facet normal 0.13052619221998144 0.9914448613738197 1.0002399404784229e-18
  outer loop
    vertex 3199.8867159359147 2269.175188781372 3.9882624582948916
    vertex 3200.921992116325 2269.0388920865284 2.988262458294894
    vertex 3199.8867159359147 2269.175188781372 2.988262458294894
  endloop
endfacet
facet normal 0.13052619221998144 0.9914448613738197 1.0002399404784229e-18
  outer loop
    vertex 3200.921992116325 2269.0388920865284 2.988262458294894
    vertex 3199.8867159359147 2269.175188781372 3.9882624582948916
    vertex 3200.921992116325 2269.0388920865284 3.9882624582948916
  endloop
endfacet
facet normal 0.9238795325113304 0.38268343236498503 -1.6509253775747911e-18
  outer loop
    vertex 3202.484792147268 2266.675188781372 3.9882624582948916
    vertex 3202.784493414782 2265.9516459166794 6.488262458294892
    vertex 3202.784493414782 2265.9516459166794 3.9882624582948916
  endloop
endfacet
facet normal 0.9238795325113304 0.38268343236498503 -1.6509253775747911e-18
  outer loop
    vertex 3202.784493414782 2265.9516459166794 6.488262458294892
    vertex 3202.484792147268 2266.675188781372 3.9882624582948916
    vertex 3202.484792147268 2266.675188781372 6.488262458294892
  endloop
endfacet
facet normal 0.6087614290089584 0.793353340291053 -3.201564620779669e-18
  outer loop
    vertex 3201.3867159359147 2267.7732649927257 6.488262458294892
    vertex 3202.0080362794747 2267.2965091249316 3.9882624582948916
    vertex 3201.3867159359147 2267.7732649927257 3.9882624582948916
  endloop
endfacet
facet normal 0.6087614290089584 0.793353340291053 -3.201564620779669e-18
  outer loop
    vertex 3202.0080362794747 2267.2965091249316 3.9882624582948916
    vertex 3201.3867159359147 2267.7732649927257 6.488262458294892
    vertex 3202.0080362794747 2267.2965091249316 6.488262458294892
  endloop
endfacet
facet normal 0.0 0.0 1.0
  outer loop
    vertex 3196.988938457048 2264.398731646065 6.488262458294892
    vertex 3196.988938457048 2265.9516459166794 6.488262458294892
    vertex 3196.8867159359147 2265.175188781372 6.488262458294892
  endloop
endfacet
facet normal 0.0 0.0 1.0
  outer loop
    vertex 3196.988938457048 2265.9516459166794 6.488262458294892
    vertex 3196.988938457048 2264.398731646065 6.488262458294892
    vertex 3197.2886397245616 2263.675188781372 6.488262458294892
  endloop
endfacet
facet normal 0.0 0.0 1.0
  outer loop
    vertex 3196.988938457048 2265.9516459166794 6.488262458294892
    vertex 3197.2886397245616 2263.675188781372 6.488262458294892
    vertex 3197.2886397245616 2266.675188781372 6.488262458294892
  endloop
endfacet
facet normal 0.0 0.0 1.0
  outer loop
    vertex 3197.2886397245616 2266.675188781372 6.488262458294892
    vertex 3197.2886397245616 2263.675188781372 6.488262458294892
    vertex 3197.765395592355 2263.0538684378125 6.488262458294892
  endloop
endfacet
facet normal 0.0 0.0 1.0
  outer loop
    vertex 3197.2886397245616 2266.675188781372 6.488262458294892
    vertex 3197.765395592355 2263.0538684378125 6.488262458294892
    vertex 3197.765395592355 2267.2965091249316 6.488262458294892
  endloop
endfacet
facet normal 0.0 0.0 1.0
  outer loop
    vertex 3197.765395592355 2267.2965091249316 6.488262458294892
    vertex 3197.765395592355 2263.0538684378125 6.488262458294892
    vertex 3198.3867159359147 2262.5771125700185 6.488262458294892
  endloop
endfacet
facet normal 0.0 0.0 1.0
  outer loop
    vertex 3197.765395592355 2267.2965091249316 6.488262458294892
    vertex 3198.3867159359147 2262.5771125700185 6.488262458294892
    vertex 3198.3867159359147 2267.7732649927257 6.488262458294892
  endloop
endfacet
facet normal 0.0 0.0 1.0
  outer loop
    vertex 3198.3867159359147 2267.7732649927257 6.488262458294892
    vertex 3198.3867159359147 2262.5771125700185 6.488262458294892
    vertex 3199.1102588006074 2262.277411302505 6.488262458294892
  endloop
endfacet
facet normal 0.0 0.0 1.0
  outer loop
    vertex 3198.3867159359147 2267.7732649927257 6.488262458294892
    vertex 3199.1102588006074 2262.277411302505 6.488262458294892
    vertex 3199.1102588006074 2268.0729662602394 6.488262458294892
  endloop
endfacet
facet normal 0.0 0.0 1.0
  outer loop
    vertex 3199.1102588006074 2268.0729662602394 6.488262458294892
    vertex 3199.1102588006074 2262.277411302505 6.488262458294892
    vertex 3199.8867159359147 2262.175188781372 6.488262458294892
  endloop
endfacet
facet normal 0.0 0.0 1.0
  outer loop
    vertex 3199.1102588006074 2268.0729662602394 6.488262458294892
    vertex 3199.8867159359147 2262.175188781372 6.488262458294892
    vertex 3199.8867159359147 2268.175188781372 6.488262458294892
  endloop
endfacet
facet normal 0.0 0.0 1.0
  outer loop
    vertex 3199.8867159359147 2268.175188781372 6.488262458294892
    vertex 3199.8867159359147 2262.175188781372 6.488262458294892
    vertex 3200.6631730712224 2262.277411302505 6.488262458294892
  endloop
endfacet
facet normal 0.0 0.0 1.0
  outer loop
    vertex 3199.8867159359147 2268.175188781372 6.488262458294892
    vertex 3200.6631730712224 2262.277411302505 6.488262458294892
    vertex 3200.6631730712224 2268.0729662602394 6.488262458294892
  endloop
endfacet
facet normal 0.0 0.0 1.0
  outer loop
    vertex 3200.6631730712224 2268.0729662602394 6.488262458294892
    vertex 3200.6631730712224 2262.277411302505 6.488262458294892
    vertex 3201.3867159359147 2262.5771125700185 6.488262458294892
  endloop
endfacet
facet normal 0.0 0.0 1.0
  outer loop
    vertex 3200.6631730712224 2268.0729662602394 6.488262458294892
    vertex 3201.3867159359147 2262.5771125700185 6.488262458294892
    vertex 3201.3867159359147 2267.7732649927257 6.488262458294892
  endloop
endfacet
facet normal 0.0 0.0 1.0
  outer loop
    vertex 3201.3867159359147 2267.7732649927257 6.488262458294892
    vertex 3201.3867159359147 2262.5771125700185 6.488262458294892
    vertex 3202.0080362794747 2263.0538684378125 6.488262458294892
  endloop
endfacet
facet normal 0.0 0.0 1.0
  outer loop
    vertex 3201.3867159359147 2267.7732649927257 6.488262458294892
    vertex 3202.0080362794747 2263.0538684378125 6.488262458294892
    vertex 3202.0080362794747 2267.2965091249316 6.488262458294892
  endloop
endfacet
facet normal 0.0 0.0 1.0
  outer loop
    vertex 3202.0080362794747 2267.2965091249316 6.488262458294892
    vertex 3202.0080362794747 2263.0538684378125 6.488262458294892
    vertex 3202.484792147268 2263.675188781372 6.488262458294892
  endloop
endfacet
facet normal 0.0 0.0 1.0
  outer loop
    vertex 3202.0080362794747 2267.2965091249316 6.488262458294892
    vertex 3202.484792147268 2263.675188781372 6.488262458294892
    vertex 3202.484792147268 2266.675188781372 6.488262458294892
  endloop
endfacet
facet normal 0.0 0.0 1.0
  outer loop
    vertex 3202.484792147268 2266.675188781372 6.488262458294892
    vertex 3202.484792147268 2263.675188781372 6.488262458294892
    vertex 3202.784493414782 2264.398731646065 6.488262458294892
  endloop
endfacet
facet normal 0.0 0.0 1.0
  outer loop
    vertex 3202.484792147268 2266.675188781372 6.488262458294892
    vertex 3202.784493414782 2264.398731646065 6.488262458294892
    vertex 3202.784493414782 2265.9516459166794 6.488262458294892
  endloop
endfacet
facet normal 0.0 0.0 1.0
  outer loop
    vertex 3202.784493414782 2265.9516459166794 6.488262458294892
    vertex 3202.784493414782 2264.398731646065 6.488262458294892
    vertex 3202.8867159359147 2265.175188781372 6.488262458294892
  endloop
endfacet
facet normal -0.991444861373801 0.13052619222012454 -6.845708771261532e-19
  outer loop
    vertex 3196.988938457048 2265.9516459166794 6.488262458294892
    vertex 3196.8867159359147 2265.175188781372 3.9882624582948916
    vertex 3196.8867159359147 2265.175188781372 6.488262458294892
  endloop
endfacet
facet normal -0.991444861373801 0.13052619222012454 -6.845708771261532e-19
  outer loop
    vertex 3196.8867159359147 2265.175188781372 3.9882624582948916
    vertex 3196.988938457048 2265.9516459166794 6.488262458294892
    vertex 3196.988938457048 2265.9516459166794 3.9882624582948916
  endloop
endfacet
facet normal -0.991444861373801 -0.13052619222012454 1.7744250109012816e-20
  outer loop
    vertex 3196.8867159359147 2265.175188781372 6.488262458294892
    vertex 3196.988938457048 2264.398731646065 3.9882624582948916
    vertex 3196.988938457048 2264.398731646065 6.488262458294892
  endloop
endfacet
facet normal -0.991444861373801 -0.13052619222012454 1.7744250109012816e-20
  outer loop
    vertex 3196.988938457048 2264.398731646065 3.9882624582948916
    vertex 3196.8867159359147 2265.175188781372 6.488262458294892
    vertex 3196.8867159359147 2265.175188781372 3.9882624582948916
  endloop
endfacet
facet normal 0.793353340291164 0.6087614290088134 8.188823124221593e-19
  outer loop
    vertex 3202.0080362794747 2267.2965091249316 3.9882624582948916
    vertex 3202.484792147268 2266.675188781372 6.488262458294892
    vertex 3202.484792147268 2266.675188781372 3.9882624582948916
  endloop
endfacet
facet normal 0.793353340291164 0.6087614290088134 8.188823124221593e-19
  outer loop
    vertex 3202.484792147268 2266.675188781372 6.488262458294892
    vertex 3202.0080362794747 2267.2965091249316 3.9882624582948916
    vertex 3202.0080362794747 2267.2965091249316 6.488262458294892
  endloop
endfacet
facet normal 0.991444861373801 0.13052619222012454 3.3341331350825075e-19
  outer loop
    vertex 3202.784493414782 2265.9516459166794 3.9882624582948916
    vertex 3202.8867159359147 2265.175188781372 6.488262458294892
    vertex 3202.8867159359147 2265.175188781372 3.9882624582948916
  endloop
endfacet
facet normal 0.991444861373801 0.13052619222012454 3.3341331350825075e-19
  outer loop
    vertex 3202.8867159359147 2265.175188781372 6.488262458294892
    vertex 3202.784493414782 2265.9516459166794 3.9882624582948916
    vertex 3202.784493414782 2265.9516459166794 6.488262458294892
  endloop
endfacet
facet normal -0.38268343236506636 0.9238795325112966 -1.0295418832100009e-18
  outer loop
    vertex 3198.3867159359147 2267.7732649927257 6.488262458294892
    vertex 3199.1102588006074 2268.0729662602394 3.9882624582948916
    vertex 3198.3867159359147 2267.7732649927257 3.9882624582948916
  endloop
endfacet
facet normal -0.38268343236506636 0.9238795325112966 -1.0295418832100009e-18
  outer loop
    vertex 3199.1102588006074 2268.0729662602394 3.9882624582948916
    vertex 3198.3867159359147 2267.7732649927257 6.488262458294892
    vertex 3199.1102588006074 2268.0729662602394 6.488262458294892
  endloop
endfacet
facet normal -0.1305261922198682 0.9914448613738347 1.3868860043572503e-18
  outer loop
    vertex 3199.1102588006074 2268.0729662602394 6.488262458294892
    vertex 3199.8867159359147 2268.175188781372 3.9882624582948916
    vertex 3199.1102588006074 2268.0729662602394 3.9882624582948916
  endloop
endfacet
facet normal -0.1305261922198682 0.9914448613738347 1.3868860043572503e-18
  outer loop
    vertex 3199.8867159359147 2268.175188781372 3.9882624582948916
    vertex 3199.1102588006074 2268.0729662602394 6.488262458294892
    vertex 3199.8867159359147 2268.175188781372 6.488262458294892
  endloop
endfacet
facet normal 0.1305261922198682 0.9914448613738347 -7.20059377347365e-19
  outer loop
    vertex 3199.8867159359147 2268.175188781372 6.488262458294892
    vertex 3200.6631730712224 2268.0729662602394 3.9882624582948916
    vertex 3199.8867159359147 2268.175188781372 3.9882624582948916
  endloop
endfacet
facet normal 0.1305261922198682 0.9914448613738347 -7.20059377347365e-19
  outer loop
    vertex 3200.6631730712224 2268.0729662602394 3.9882624582948916
    vertex 3199.8867159359147 2268.175188781372 6.488262458294892
    vertex 3200.6631730712224 2268.0729662602394 6.488262458294892
  endloop
endfacet
facet normal -0.6087614290089586 0.7933533402910528 8.188823124267559e-19
  outer loop
    vertex 3197.765395592355 2267.2965091249316 6.488262458294892
    vertex 3198.3867159359147 2267.7732649927257 3.9882624582948916
    vertex 3197.765395592355 2267.2965091249316 3.9882624582948916
  endloop
endfacet
facet normal -0.6087614290089586 0.7933533402910528 8.188823124267559e-19
  outer loop
    vertex 3198.3867159359147 2267.7732649927257 3.9882624582948916
    vertex 3197.765395592355 2267.2965091249316 6.488262458294892
    vertex 3198.3867159359147 2267.7732649927257 6.488262458294892
  endloop
endfacet
facet normal -0.9238795325113304 0.38268343236498503 1.6509253775706577e-18
  outer loop
    vertex 3197.2886397245616 2266.675188781372 6.488262458294892
    vertex 3196.988938457048 2265.9516459166794 3.9882624582948916
    vertex 3196.988938457048 2265.9516459166794 6.488262458294892
  endloop
endfacet
facet normal -0.9238795325113304 0.38268343236498503 1.6509253775706577e-18
  outer loop
    vertex 3196.988938457048 2265.9516459166794 3.9882624582948916
    vertex 3197.2886397245616 2266.675188781372 6.488262458294892
    vertex 3197.2886397245616 2266.675188781372 3.9882624582948916
  endloop
endfacet
facet normal 0.38268343236506647 0.9238795325112966 1.6509253775722589e-18
  outer loop
    vertex 3200.6631730712224 2268.0729662602394 6.488262458294892
    vertex 3201.3867159359147 2267.7732649927257 3.9882624582948916
    vertex 3200.6631730712224 2268.0729662602394 3.9882624582948916
  endloop
endfacet
facet normal 0.38268343236506647 0.9238795325112966 1.6509253775722589e-18
  outer loop
    vertex 3201.3867159359147 2267.7732649927257 3.9882624582948916
    vertex 3200.6631730712224 2268.0729662602394 6.488262458294892
    vertex 3201.3867159359147 2267.7732649927257 6.488262458294892
  endloop
endfacet
facet normal -0.793353340291164 0.6087614290088134 -5.1893622906227975e-31
  outer loop
    vertex 3197.765395592355 2267.2965091249316 6.488262458294892
    vertex 3197.2886397245616 2266.675188781372 3.9882624582948916
    vertex 3197.2886397245616 2266.675188781372 6.488262458294892
  endloop
endfacet
facet normal -0.793353340291164 0.6087614290088134 -5.1893622906227975e-31
  outer loop
    vertex 3197.2886397245616 2266.675188781372 3.9882624582948916
    vertex 3197.765395592355 2267.2965091249316 6.488262458294892
    vertex 3197.765395592355 2267.2965091249316 3.9882624582948916
  endloop
endfacet
facet normal 0.6087614290089585 -0.7933533402910528 4.020446933203445e-18
  outer loop
    vertex 3202.0080362794747 2263.0538684378125 6.488262458294892
    vertex 3201.3867159359147 2262.5771125700185 3.9882624582948916
    vertex 3202.0080362794747 2263.0538684378125 3.9882624582948916
  endloop
endfacet
facet normal 0.6087614290089585 -0.7933533402910528 4.020446933203445e-18
  outer loop
    vertex 3201.3867159359147 2262.5771125700185 3.9882624582948916
    vertex 3202.0080362794747 2263.0538684378125 6.488262458294892
    vertex 3201.3867159359147 2262.5771125700185 6.488262458294892
  endloop
endfacet
facet normal 0.6087614290086574 -0.7933533402912837 0.0
  outer loop
    vertex 3202.7151430606614 2262.3467616566254 3.9882624582948916
    vertex 3201.8867159359147 2261.711087166234 2.988262458294892
    vertex 3202.7151430606614 2262.3467616566254 2.988262458294892
  endloop
endfacet
facet normal 0.6087614290086574 -0.7933533402912837 0.0
  outer loop
    vertex 3201.8867159359147 2261.711087166234 2.988262458294892
    vertex 3202.7151430606614 2262.3467616566254 3.9882624582948916
    vertex 3201.8867159359147 2261.711087166234 3.9882624582948916
  endloop
endfacet
facet normal 0.9238795325112388 0.38268343236520547 -3.7283009662083796e-18
  outer loop
    vertex 3203.350817551053 2267.175188781372 2.988262458294894
    vertex 3203.7504192410715 2266.2104649617822 3.9882624582948916
    vertex 3203.7504192410715 2266.2104649617822 2.988262458294894
  endloop
endfacet
facet normal 0.9238795325112388 0.38268343236520547 -3.7283009662083796e-18
  outer loop
    vertex 3203.7504192410715 2266.2104649617822 3.9882624582948916
    vertex 3203.350817551053 2267.175188781372 2.988262458294894
    vertex 3203.350817551053 2267.175188781372 3.9882624582948916
  endloop
endfacet
facet normal -0.9238795325113304 -0.38268343236498503 -1.6509253775706577e-18
  outer loop
    vertex 3196.988938457048 2264.398731646065 6.488262458294892
    vertex 3197.2886397245616 2263.675188781372 3.9882624582948916
    vertex 3197.2886397245616 2263.675188781372 6.488262458294892
  endloop
endfacet
facet normal -0.9238795325113304 -0.38268343236498503 -1.6509253775706577e-18
  outer loop
    vertex 3197.2886397245616 2263.675188781372 3.9882624582948916
    vertex 3196.988938457048 2264.398731646065 6.488262458294892
    vertex 3196.988938457048 2264.398731646065 3.9882624582948916
  endloop
endfacet
facet normal 0.7933533402911641 -0.6087614290088132 2.7049528317795932e-18
  outer loop
    vertex 3202.484792147268 2263.675188781372 3.9882624582948916
    vertex 3202.0080362794747 2263.0538684378125 6.488262458294892
    vertex 3202.0080362794747 2263.0538684378125 3.9882624582948916
  endloop
endfacet
facet normal 0.7933533402911641 -0.6087614290088132 2.7049528317795932e-18
  outer loop
    vertex 3202.0080362794747 2263.0538684378125 6.488262458294892
    vertex 3202.484792147268 2263.675188781372 3.9882624582948916
    vertex 3202.484792147268 2263.675188781372 6.488262458294892
  endloop
endfacet
facet normal 0.9914448613738197 -0.13052619221998144 0.0
  outer loop
    vertex 3203.886715935915 2265.175188781372 2.988262458294892
    vertex 3203.7504192410715 2264.139912600962 3.9882624582948916
    vertex 3203.7504192410715 2264.139912600962 2.988262458294892
  endloop
endfacet
facet normal 0.9914448613738197 -0.13052619221998144 0.0
  outer loop
    vertex 3203.7504192410715 2264.139912600962 3.9882624582948916
    vertex 3203.886715935915 2265.175188781372 2.988262458294892
    vertex 3203.886715935915 2265.175188781372 3.9882624582948916
  endloop
endfacet
facet normal -0.38268343236506636 -0.9238795325112966 1.0295418832100009e-18
  outer loop
    vertex 3199.1102588006074 2262.277411302505 6.488262458294892
    vertex 3198.3867159359147 2262.5771125700185 3.9882624582948916
    vertex 3199.1102588006074 2262.277411302505 3.9882624582948916
  endloop
endfacet
facet normal -0.38268343236506636 -0.9238795325112966 1.0295418832100009e-18
  outer loop
    vertex 3198.3867159359147 2262.5771125700185 3.9882624582948916
    vertex 3199.1102588006074 2262.277411302505 6.488262458294892
    vertex 3198.3867159359147 2262.5771125700185 6.488262458294892
  endloop
endfacet
facet normal 0.9238795325112895 -0.38268343236508334 0.0
  outer loop
    vertex 3203.7504192410715 2264.139912600962 2.988262458294892
    vertex 3203.350817551053 2263.1751887813716 3.9882624582948916
    vertex 3203.350817551053 2263.1751887813716 2.988262458294892
  endloop
endfacet
facet normal 0.9238795325112895 -0.38268343236508334 0.0
  outer loop
    vertex 3203.350817551053 2263.1751887813716 3.9882624582948916
    vertex 3203.7504192410715 2264.139912600962 2.988262458294892
    vertex 3203.7504192410715 2264.139912600962 3.9882624582948916
  endloop
endfacet
facet normal -0.3826834323651444 -0.9238795325112642 -0.0
  outer loop
    vertex 3198.8514397555045 2261.3114854762157 3.9882624582948916
    vertex 3197.886715935915 2261.711087166234 2.988262458294892
    vertex 3198.8514397555045 2261.3114854762157 2.988262458294892
  endloop
endfacet
facet normal -0.3826834323651444 -0.9238795325112642 -0.0
  outer loop
    vertex 3197.886715935915 2261.711087166234 2.988262458294892
    vertex 3198.8514397555045 2261.3114854762157 3.9882624582948916
    vertex 3197.886715935915 2261.711087166234 3.9882624582948916
  endloop
endfacet
facet normal -0.7933533402911641 -0.6087614290088134 5.439216767157886e-30
  outer loop
    vertex 3197.2886397245616 2263.675188781372 6.488262458294892
    vertex 3197.765395592355 2263.0538684378125 3.9882624582948916
    vertex 3197.765395592355 2263.0538684378125 6.488262458294892
  endloop
endfacet
facet normal -0.7933533402911641 -0.6087614290088134 5.439216767157886e-30
  outer loop
    vertex 3197.765395592355 2263.0538684378125 3.9882624582948916
    vertex 3197.2886397245616 2263.675188781372 6.488262458294892
    vertex 3197.2886397245616 2263.675188781372 3.9882624582948916
  endloop
endfacet
facet normal 0.3826834323651444 -0.9238795325112642 0.0
  outer loop
    vertex 3201.8867159359147 2261.711087166234 3.9882624582948916
    vertex 3200.921992116325 2261.3114854762157 2.988262458294892
    vertex 3201.8867159359147 2261.711087166234 2.988262458294892
  endloop
endfacet
facet normal 0.3826834323651444 -0.9238795325112642 0.0
  outer loop
    vertex 3200.921992116325 2261.3114854762157 2.988262458294892
    vertex 3201.8867159359147 2261.711087166234 3.9882624582948916
    vertex 3200.921992116325 2261.3114854762157 3.9882624582948916
  endloop
endfacet
facet normal -0.13052619221998144 -0.9914448613738197 -0.0
  outer loop
    vertex 3199.8867159359147 2261.1751887813716 3.9882624582948916
    vertex 3198.8514397555045 2261.3114854762157 2.988262458294892
    vertex 3199.8867159359147 2261.1751887813716 2.988262458294892
  endloop
endfacet
facet normal -0.13052619221998144 -0.9914448613738197 -0.0
  outer loop
    vertex 3198.8514397555045 2261.3114854762157 2.988262458294892
    vertex 3199.8867159359147 2261.1751887813716 3.9882624582948916
    vertex 3198.8514397555045 2261.3114854762157 3.9882624582948916
  endloop
endfacet
facet normal 0.1305261922198682 -0.9914448613738347 -1.7380435679689727e-18
  outer loop
    vertex 3200.6631730712224 2262.277411302505 6.488262458294892
    vertex 3199.8867159359147 2262.175188781372 3.9882624582948916
    vertex 3200.6631730712224 2262.277411302505 3.9882624582948916
  endloop
endfacet
facet normal 0.1305261922198682 -0.9914448613738347 -1.7380435679689727e-18
  outer loop
    vertex 3199.8867159359147 2262.175188781372 3.9882624582948916
    vertex 3200.6631730712224 2262.277411302505 6.488262458294892
    vertex 3199.8867159359147 2262.175188781372 6.488262458294892
  endloop
endfacet
facet normal -0.7933533402913477 -0.6087614290085739 -0.0
  outer loop
    vertex 3196.422614320777 2263.175188781372 3.9882624582948916
    vertex 3197.0582888111685 2262.3467616566254 2.988262458294892
    vertex 3197.0582888111685 2262.3467616566254 3.9882624582948916
  endloop
endfacet
facet normal -0.7933533402913477 -0.6087614290085739 -0.0
  outer loop
    vertex 3197.0582888111685 2262.3467616566254 2.988262458294892
    vertex 3196.422614320777 2263.175188781372 3.9882624582948916
    vertex 3196.422614320777 2263.175188781372 2.988262458294892
  endloop
endfacet
facet normal 0.991444861373801 -0.13052619222012454 3.3341331350888954e-19
  outer loop
    vertex 3202.8867159359147 2265.175188781372 3.9882624582948916
    vertex 3202.784493414782 2264.398731646065 6.488262458294892
    vertex 3202.784493414782 2264.398731646065 3.9882624582948916
  endloop
endfacet
facet normal 0.991444861373801 -0.13052619222012454 3.3341331350888954e-19
  outer loop
    vertex 3202.784493414782 2264.398731646065 6.488262458294892
    vertex 3202.8867159359147 2265.175188781372 3.9882624582948916
    vertex 3202.8867159359147 2265.175188781372 6.488262458294892
  endloop
endfacet
facet normal -0.1305261922198682 -0.9914448613738347 1.4046302544713076e-18
  outer loop
    vertex 3199.8867159359147 2262.175188781372 6.488262458294892
    vertex 3199.1102588006074 2262.277411302505 3.9882624582948916
    vertex 3199.8867159359147 2262.175188781372 3.9882624582948916
  endloop
endfacet
facet normal -0.1305261922198682 -0.9914448613738347 1.4046302544713076e-18
  outer loop
    vertex 3199.1102588006074 2262.277411302505 3.9882624582948916
    vertex 3199.8867159359147 2262.175188781372 6.488262458294892
    vertex 3199.1102588006074 2262.277411302505 6.488262458294892
  endloop
endfacet
facet normal 0.38268343236506647 -0.9238795325112966 -4.0815838883511654e-19
  outer loop
    vertex 3201.3867159359147 2262.5771125700185 6.488262458294892
    vertex 3200.6631730712224 2262.277411302505 3.9882624582948916
    vertex 3201.3867159359147 2262.5771125700185 3.9882624582948916
  endloop
endfacet
facet normal 0.38268343236506647 -0.9238795325112966 -4.0815838883511654e-19
  outer loop
    vertex 3200.6631730712224 2262.277411302505 3.9882624582948916
    vertex 3201.3867159359147 2262.5771125700185 6.488262458294892
    vertex 3200.6631730712224 2262.277411302505 6.488262458294892
  endloop
endfacet
facet normal -0.6087614290089586 -0.7933533402910528 2.382682308352912e-18
  outer loop
    vertex 3198.3867159359147 2262.5771125700185 6.488262458294892
    vertex 3197.765395592355 2263.0538684378125 3.9882624582948916
    vertex 3198.3867159359147 2262.5771125700185 3.9882624582948916
  endloop
endfacet
facet normal -0.6087614290089586 -0.7933533402910528 2.382682308352912e-18
  outer loop
    vertex 3197.765395592355 2263.0538684378125 3.9882624582948916
    vertex 3198.3867159359147 2262.5771125700185 6.488262458294892
    vertex 3197.765395592355 2263.0538684378125 6.488262458294892
  endloop
endfacet
facet normal 0.9238795325113304 -0.38268343236498503 -2.1322510553013436e-19
  outer loop
    vertex 3202.784493414782 2264.398731646065 3.9882624582948916
    vertex 3202.484792147268 2263.675188781372 6.488262458294892
    vertex 3202.484792147268 2263.675188781372 3.9882624582948916
  endloop
endfacet
facet normal 0.9238795325113304 -0.38268343236498503 -2.1322510553013436e-19
  outer loop
    vertex 3202.484792147268 2263.675188781372 6.488262458294892
    vertex 3202.784493414782 2264.398731646065 3.9882624582948916
    vertex 3202.784493414782 2264.398731646065 6.488262458294892
  endloop
endfacet
facet normal 0.9914448613738197 0.13052619221998146 2.106945381673689e-18
  outer loop
    vertex 3203.7504192410715 2266.2104649617822 2.988262458294894
    vertex 3203.886715935915 2265.175188781372 3.9882624582948916
    vertex 3203.886715935915 2265.175188781372 2.988262458294892
  endloop
endfacet
facet normal 0.9914448613738197 0.13052619221998146 2.106945381673689e-18
  outer loop
    vertex 3203.886715935915 2265.175188781372 3.9882624582948916
    vertex 3203.7504192410715 2266.2104649617822 2.988262458294894
    vertex 3203.7504192410715 2266.2104649617822 3.9882624582948916
  endloop
endfacet
facet normal 0.7933533402912196 -0.6087614290087409 0.0
  outer loop
    vertex 3203.350817551053 2263.1751887813716 2.988262458294892
    vertex 3202.7151430606614 2262.3467616566254 3.9882624582948916
    vertex 3202.7151430606614 2262.3467616566254 2.988262458294892
  endloop
endfacet
facet normal 0.7933533402912196 -0.6087614290087409 0.0
  outer loop
    vertex 3202.7151430606614 2262.3467616566254 3.9882624582948916
    vertex 3203.350817551053 2263.1751887813716 2.988262458294892
    vertex 3203.350817551053 2263.1751887813716 3.9882624582948916
  endloop
endfacet
facet normal 0.13052619221998144 -0.9914448613738197 0.0
  outer loop
    vertex 3200.921992116325 2261.3114854762157 3.9882624582948916
    vertex 3199.8867159359147 2261.1751887813716 2.988262458294892
    vertex 3200.921992116325 2261.3114854762157 2.988262458294892
  endloop
endfacet
facet normal 0.13052619221998144 -0.9914448613738197 0.0
  outer loop
    vertex 3199.8867159359147 2261.1751887813716 2.988262458294892
    vertex 3200.921992116325 2261.3114854762157 3.9882624582948916
    vertex 3199.8867159359147 2261.1751887813716 3.9882624582948916
  endloop
endfacet
facet normal -0.9238795325112388 -0.38268343236520547 -0.0
  outer loop
    vertex 3196.0230126307583 2264.139912600962 3.9882624582948916
    vertex 3196.422614320777 2263.175188781372 2.988262458294892
    vertex 3196.422614320777 2263.175188781372 3.9882624582948916
  endloop
endfacet
facet normal -0.9238795325112388 -0.38268343236520547 -0.0
  outer loop
    vertex 3196.422614320777 2263.175188781372 2.988262458294892
    vertex 3196.0230126307583 2264.139912600962 3.9882624582948916
    vertex 3196.0230126307583 2264.139912600962 2.988262458294892
  endloop
endfacet
facet normal -0.6087614290086574 -0.7933533402912837 -0.0
  outer loop
    vertex 3197.886715935915 2261.711087166234 3.9882624582948916
    vertex 3197.0582888111685 2262.3467616566254 2.988262458294892
    vertex 3197.886715935915 2261.711087166234 2.988262458294892
  endloop
endfacet
facet normal -0.6087614290086574 -0.7933533402912837 -0.0
  outer loop
    vertex 3197.0582888111685 2262.3467616566254 2.988262458294892
    vertex 3197.886715935915 2261.711087166234 3.9882624582948916
    vertex 3197.0582888111685 2262.3467616566254 3.9882624582948916
  endloop
endfacet
facet normal 0.0 0.0 1.0
  outer loop
    vertex 3195.8867159359147 2256.675188781372 2.988262458294892
    vertex 3196.0230126307583 2264.139912600962 2.988262458294892
    vertex 3195.8867159359147 2265.175188781372 2.988262458294892
  endloop
endfacet
facet normal 0.0 0.0 1.0
  outer loop
    vertex 3196.0230126307583 2264.139912600962 2.988262458294892
    vertex 3195.8867159359147 2256.675188781372 2.988262458294892
    vertex 3196.422614320777 2263.175188781372 2.988262458294892
  endloop
endfacet
facet normal 0.0 0.0 1.0
  outer loop
    vertex 3196.422614320777 2263.175188781372 2.988262458294892
    vertex 3195.8867159359147 2256.675188781372 2.988262458294892
    vertex 3197.0582888111685 2262.3467616566254 2.988262458294892
  endloop
endfacet
facet normal 0.0 0.0 1.0
  outer loop
    vertex 3197.0582888111685 2262.3467616566254 2.988262458294892
    vertex 3195.8867159359147 2256.675188781372 2.988262458294892
    vertex 3203.886715935915 2256.675188781372 2.988262458294892
  endloop
endfacet
facet normal 0.0 0.0 1.0
  outer loop
    vertex 3197.0582888111685 2262.3467616566254 2.988262458294892
    vertex 3203.886715935915 2256.675188781372 2.988262458294892
    vertex 3197.886715935915 2261.711087166234 2.988262458294892
  endloop
endfacet
facet normal 0.0 0.0 1.0
  outer loop
    vertex 3197.886715935915 2261.711087166234 2.988262458294892
    vertex 3203.886715935915 2256.675188781372 2.988262458294892
    vertex 3198.8514397555045 2261.3114854762157 2.988262458294892
  endloop
endfacet
facet normal 0.0 0.0 1.0
  outer loop
    vertex 3198.8514397555045 2261.3114854762157 2.988262458294892
    vertex 3203.886715935915 2256.675188781372 2.988262458294892
    vertex 3199.8867159359147 2261.1751887813716 2.988262458294892
  endloop
endfacet
facet normal 0.0 0.0 1.0
  outer loop
    vertex 3199.8867159359147 2261.1751887813716 2.988262458294892
    vertex 3203.886715935915 2256.675188781372 2.988262458294892
    vertex 3200.921992116325 2261.3114854762157 2.988262458294892
  endloop
endfacet
facet normal 0.0 0.0 1.0
  outer loop
    vertex 3200.921992116325 2261.3114854762157 2.988262458294892
    vertex 3203.886715935915 2256.675188781372 2.988262458294892
    vertex 3201.8867159359147 2261.711087166234 2.988262458294892
  endloop
endfacet
facet normal 0.0 0.0 1.0
  outer loop
    vertex 3201.8867159359147 2261.711087166234 2.988262458294892
    vertex 3203.886715935915 2256.675188781372 2.988262458294892
    vertex 3202.7151430606614 2262.3467616566254 2.988262458294892
  endloop
endfacet
facet normal 0.0 0.0 1.0
  outer loop
    vertex 3202.7151430606614 2262.3467616566254 2.988262458294892
    vertex 3203.886715935915 2256.675188781372 2.988262458294892
    vertex 3203.350817551053 2263.1751887813716 2.988262458294892
  endloop
endfacet
facet normal 0.0 0.0 1.0
  outer loop
    vertex 3203.350817551053 2263.1751887813716 2.988262458294892
    vertex 3203.886715935915 2256.675188781372 2.988262458294892
    vertex 3203.7504192410715 2264.139912600962 2.988262458294892
  endloop
endfacet
facet normal 0.0 0.0 1.0
  outer loop
    vertex 3203.7504192410715 2264.139912600962 2.988262458294892
    vertex 3203.886715935915 2256.675188781372 2.988262458294892
    vertex 3203.886715935915 2265.175188781372 2.988262458294892
  endloop
endfacet
facet normal -9.791550286625175e-18 -1.2638962649600357e-16 1.0
  outer loop
    vertex 3196.0230126307583 2266.2104649617822 2.988262458294894
    vertex 3195.8867159359147 2273.675188781372 2.9882624582948933
    vertex 3195.8867159359147 2265.175188781372 2.988262458294892
  endloop
endfacet
facet normal -9.791550286625175e-18 -1.2638962649600357e-16 1.0
  outer loop
    vertex 3195.8867159359147 2273.675188781372 2.9882624582948933
    vertex 3196.0230126307583 2266.2104649617822 2.988262458294894
    vertex 3196.422614320777 2267.175188781372 2.988262458294894
  endloop
endfacet
facet normal -9.791550286625175e-18 -1.2638962649600357e-16 1.0
  outer loop
    vertex 3195.8867159359147 2273.675188781372 2.9882624582948933
    vertex 3196.422614320777 2267.175188781372 2.988262458294894
    vertex 3197.0582888111685 2268.0036159061183 2.988262458294894
  endloop
endfacet
facet normal -9.791550286625175e-18 -1.2638962649600357e-16 1.0
  outer loop
    vertex 3195.8867159359147 2273.675188781372 2.9882624582948933
    vertex 3197.0582888111685 2268.0036159061183 2.988262458294894
    vertex 3203.886715935915 2273.675188781372 2.988262458294894
  endloop
endfacet
facet normal -9.791550286625175e-18 -1.2638962649600357e-16 1.0
  outer loop
    vertex 3203.886715935915 2273.675188781372 2.988262458294894
    vertex 3197.0582888111685 2268.0036159061183 2.988262458294894
    vertex 3197.886715935915 2268.6392903965098 2.988262458294894
  endloop
endfacet
facet normal -9.791550286625175e-18 -1.2638962649600357e-16 1.0
  outer loop
    vertex 3203.886715935915 2273.675188781372 2.988262458294894
    vertex 3197.886715935915 2268.6392903965098 2.988262458294894
    vertex 3198.8514397555045 2269.0388920865284 2.988262458294894
  endloop
endfacet
facet normal -9.791550286625175e-18 -1.2638962649600357e-16 1.0
  outer loop
    vertex 3203.886715935915 2273.675188781372 2.988262458294894
    vertex 3198.8514397555045 2269.0388920865284 2.988262458294894
    vertex 3199.8867159359147 2269.175188781372 2.988262458294894
  endloop
endfacet
facet normal -9.791550286625175e-18 -1.2638962649600357e-16 1.0
  outer loop
    vertex 3203.886715935915 2273.675188781372 2.988262458294894
    vertex 3199.8867159359147 2269.175188781372 2.988262458294894
    vertex 3200.921992116325 2269.0388920865284 2.988262458294894
  endloop
endfacet
facet normal -9.791550286625175e-18 -1.2638962649600357e-16 1.0
  outer loop
    vertex 3203.886715935915 2273.675188781372 2.988262458294894
    vertex 3200.921992116325 2269.0388920865284 2.988262458294894
    vertex 3201.8867159359147 2268.6392903965098 2.988262458294894
  endloop
endfacet
facet normal -9.791550286625175e-18 -1.2638962649600357e-16 1.0
  outer loop
    vertex 3203.886715935915 2273.675188781372 2.988262458294894
    vertex 3201.8867159359147 2268.6392903965098 2.988262458294894
    vertex 3202.7151430606614 2268.0036159061183 2.988262458294894
  endloop
endfacet
facet normal -9.791550286625175e-18 -1.2638962649600357e-16 1.0
  outer loop
    vertex 3203.886715935915 2273.675188781372 2.988262458294894
    vertex 3202.7151430606614 2268.0036159061183 2.988262458294894
    vertex 3203.350817551053 2267.175188781372 2.988262458294894
  endloop
endfacet
facet normal -9.791550286625175e-18 -1.2638962649600357e-16 1.0
  outer loop
    vertex 3203.886715935915 2273.675188781372 2.988262458294894
    vertex 3203.350817551053 2267.175188781372 2.988262458294894
    vertex 3203.7504192410715 2266.2104649617822 2.988262458294894
  endloop
endfacet
facet normal -9.791550286625175e-18 -1.2638962649600357e-16 1.0
  outer loop
    vertex 3203.886715935915 2273.675188781372 2.988262458294894
    vertex 3203.7504192410715 2266.2104649617822 2.988262458294894
    vertex 3203.886715935915 2265.175188781372 2.988262458294892
  endloop
endfacet
facet normal -6.609296443471348e-17 -1.1749860343949418e-16 1.0
  outer loop
    vertex 3203.886715935915 2273.675188781372 6.488262458294892
    vertex 3195.8867159359147 2279.6755203290745 6.488262458294892
    vertex 3195.8867159359147 2273.675188781372 6.488262458294892
  endloop
endfacet
facet normal -6.609296443471348e-17 -1.1749860343949418e-16 1.0
  outer loop
    vertex 3195.8867159359147 2279.6755203290745 6.488262458294892
    vertex 3203.886715935915 2273.675188781372 6.488262458294892
    vertex 3203.886715935915 2279.6755203290745 6.488262458294892
  endloop
endfacet
facet normal -2.316710510070289e-21 0.9999999987659218 4.9680543602556935e-05
  outer loop
    vertex 3195.8867159359147 2279.6755203290745 6.488262458294892
    vertex 3203.886715935915 2279.6758518767765 0.006221057573206972
    vertex 3195.8867159359147 2279.6758518767765 0.00622105757320662
  endloop
endfacet
facet normal -2.316710510070289e-21 0.9999999987659218 4.9680543602556935e-05
  outer loop
    vertex 3203.886715935915 2279.6758518767765 0.006221057573206972
    vertex 3195.8867159359147 2279.6755203290745 6.488262458294892
    vertex 3203.886715935915 2279.6755203290745 6.488262458294892
  endloop
endfacet
facet normal 0.0 -1.0 0.0
  outer loop
    vertex 3203.886715935915 2273.675188781372 2.988262458294894
    vertex 3195.8867159359147 2273.675188781372 6.488262458294892
    vertex 3195.8867159359147 2273.675188781372 2.9882624582948933
  endloop
endfacet
facet normal 0.0 -1.0 0.0
  outer loop
    vertex 3195.8867159359147 2273.675188781372 6.488262458294892
    vertex 3203.886715935915 2273.675188781372 2.988262458294894
    vertex 3203.886715935915 2273.675188781372 6.488262458294892
  endloop
endfacet
facet normal 0.0 0.0 1.0
  outer loop
    vertex 3203.886715935915 2250.675188781371 6.488262458294889
    vertex 3195.8867159359147 2256.675188781372 6.488262458294889
    vertex 3195.8867159359147 2250.675188781371 6.488262458294889
  endloop
endfacet
facet normal 0.0 0.0 1.0
  outer loop
    vertex 3195.8867159359147 2256.675188781372 6.488262458294889
    vertex 3203.886715935915 2250.675188781371 6.488262458294889
    vertex 3203.886715935915 2256.675188781372 6.488262458294889
  endloop
endfacet
facet normal 4.298760375508072e-43 -1.0 -1.6217227117120047e-13
  outer loop
    vertex 3203.886715935915 2250.675188781372 -6.122136218117414e-14
    vertex 3195.8867159359147 2250.675188781371 6.488262458294889
    vertex 3195.8867159359147 2250.675188781372 -6.132738631162148e-14
  endloop
endfacet
facet normal 4.298760375508072e-43 -1.0 -1.6217227117120047e-13
  outer loop
    vertex 3195.8867159359147 2250.675188781371 6.488262458294889
    vertex 3203.886715935915 2250.675188781372 -6.122136218117414e-14
    vertex 3203.886715935915 2250.675188781371 6.488262458294889
  endloop
endfacet
facet normal 0.0 1.0 0.0
  outer loop
    vertex 3195.8867159359147 2256.675188781372 6.488262458294889
    vertex 3203.886715935915 2256.675188781372 2.988262458294892
    vertex 3195.8867159359147 2256.675188781372 2.988262458294892
  endloop
endfacet
facet normal 0.0 1.0 0.0
  outer loop
    vertex 3203.886715935915 2256.675188781372 2.988262458294892
    vertex 3195.8867159359147 2256.675188781372 6.488262458294889
    vertex 3203.886715935915 2256.675188781372 6.488262458294889
  endloop
endfacet
facet normal 1.0 0.0 0.0
  outer loop
    vertex 3203.886715935915 2279.6758518767765 0.006221057573206972
    vertex 3203.886715935915 2256.675188781372 2.988262458294892
    vertex 3203.886715935915 2250.675188781372 -6.122136218117414e-14
  endloop
endfacet
facet normal 1.0 0.0 0.0
  outer loop
    vertex 3203.886715935915 2256.675188781372 2.988262458294892
    vertex 3203.886715935915 2279.6758518767765 0.006221057573206972
    vertex 3203.886715935915 2265.175188781372 2.988262458294892
  endloop
endfacet
facet normal 1.0 0.0 0.0
  outer loop
    vertex 3203.886715935915 2265.175188781372 2.988262458294892
    vertex 3203.886715935915 2279.6758518767765 0.006221057573206972
    vertex 3203.886715935915 2273.675188781372 2.988262458294894
  endloop
endfacet
facet normal 1.0 0.0 0.0
  outer loop
    vertex 3203.886715935915 2273.675188781372 2.988262458294894
    vertex 3203.886715935915 2279.6758518767765 0.006221057573206972
    vertex 3203.886715935915 2273.675188781372 6.488262458294892
  endloop
endfacet
facet normal 1.0 0.0 0.0
  outer loop
    vertex 3203.886715935915 2273.675188781372 6.488262458294892
    vertex 3203.886715935915 2279.6758518767765 0.006221057573206972
    vertex 3203.886715935915 2279.6755203290745 6.488262458294892
  endloop
endfacet
facet normal 1.0 0.0 0.0
  outer loop
    vertex 3203.886715935915 2250.675188781372 -6.122136218117414e-14
    vertex 3203.886715935915 2256.675188781372 6.488262458294889
    vertex 3203.886715935915 2250.675188781371 6.488262458294889
  endloop
endfacet
facet normal 1.0 0.0 0.0
  outer loop
    vertex 3203.886715935915 2256.675188781372 6.488262458294889
    vertex 3203.886715935915 2250.675188781372 -6.122136218117414e-14
    vertex 3203.886715935915 2256.675188781372 2.988262458294892
  endloop
endfacet
facet normal 2.865561310782354e-17 0.0002145143167819012 -0.9999999769918037
  outer loop
    vertex 3203.886715935915 2279.6758518767765 0.006221057573206972
    vertex 3195.8867159359147 2250.675188781372 -6.132738631162148e-14
    vertex 3195.8867159359147 2279.6758518767765 0.00622105757320662
  endloop
endfacet
facet normal 2.865561310782354e-17 0.0002145143167819012 -0.9999999769918037
  outer loop
    vertex 3195.8867159359147 2250.675188781372 -6.132738631162148e-14
    vertex 3203.886715935915 2279.6758518767765 0.006221057573206972
    vertex 3203.886715935915 2250.675188781372 -6.122136218117414e-14
  endloop
endfacet
facet normal -1.0 0.0 0.0
  outer loop
    vertex 3195.8867159359147 2279.6755203290745 6.488262458294892
    vertex 3195.8867159359147 2273.675188781372 2.9882624582948933
    vertex 3195.8867159359147 2273.675188781372 6.488262458294892
  endloop
endfacet
facet normal -1.0 0.0 0.0
  outer loop
    vertex 3195.8867159359147 2256.675188781372 6.488262458294889
    vertex 3195.8867159359147 2250.675188781372 -6.132738631162148e-14
    vertex 3195.8867159359147 2250.675188781371 6.488262458294889
  endloop
endfacet
facet normal -1.0 0.0 0.0
  outer loop
    vertex 3195.8867159359147 2250.675188781372 -6.132738631162148e-14
    vertex 3195.8867159359147 2256.675188781372 6.488262458294889
    vertex 3195.8867159359147 2256.675188781372 2.988262458294892
  endloop
endfacet
facet normal -1.0 0.0 0.0
  outer loop
    vertex 3195.8867159359147 2250.675188781372 -6.132738631162148e-14
    vertex 3195.8867159359147 2256.675188781372 2.988262458294892
    vertex 3195.8867159359147 2279.6758518767765 0.00622105757320662
  endloop
endfacet
facet normal -1.0 0.0 0.0
  outer loop
    vertex 3195.8867159359147 2279.6758518767765 0.00622105757320662
    vertex 3195.8867159359147 2256.675188781372 2.988262458294892
    vertex 3195.8867159359147 2265.175188781372 2.988262458294892
  endloop
endfacet
facet normal -1.0 0.0 0.0
  outer loop
    vertex 3195.8867159359147 2279.6758518767765 0.00622105757320662
    vertex 3195.8867159359147 2265.175188781372 2.988262458294892
    vertex 3195.8867159359147 2273.675188781372 2.9882624582948933
  endloop
endfacet
facet normal -1.0 0.0 0.0
  outer loop
    vertex 3195.8867159359147 2279.6758518767765 0.00622105757320662
    vertex 3195.8867159359147 2273.675188781372 2.9882624582948933
    vertex 3195.8867159359147 2279.6755203290745 6.488262458294892
  endloop
endfacet
endsolid CNC
